<mxfile host="www.draw.io" modified="2019-12-10T23:02:13.491Z" agent="Mozilla/5.0 (Windows NT 10.0; Win64; x64) AppleWebKit/537.36 (KHTML, like Gecko) Chrome/78.0.3904.108 Safari/537.36" etag="Gdnwx2SHsPN4t2uW8Fs-" version="12.3.9" type="github" pages="5">
  <diagram id="sml3E6NoXSnOE3Q9iOXC" name="Class Diagram">
    <mxGraphModel dx="2048" dy="1140" grid="1" gridSize="10" guides="1" tooltips="1" connect="1" arrows="1" fold="1" page="1" pageScale="1" pageWidth="1100" pageHeight="850" math="0" shadow="0">
      <root>
        <mxCell id="o0rBGFumHpDZ31UL0egZ-0"/>
        <mxCell id="o0rBGFumHpDZ31UL0egZ-1" parent="o0rBGFumHpDZ31UL0egZ-0"/>
        <mxCell id="o0rBGFumHpDZ31UL0egZ-2" value="«interface»&#xa;Polygon" style="swimlane;fontStyle=1;align=center;verticalAlign=top;childLayout=stackLayout;horizontal=1;startSize=42;horizontalStack=0;resizeParent=1;resizeParentMax=0;resizeLast=0;collapsible=1;marginBottom=0;" parent="o0rBGFumHpDZ31UL0egZ-1" vertex="1">
          <mxGeometry x="87.5" y="40" width="190" height="102" as="geometry"/>
        </mxCell>
        <mxCell id="o0rBGFumHpDZ31UL0egZ-4" value="" style="line;strokeWidth=1;fillColor=none;align=left;verticalAlign=middle;spacingTop=-1;spacingLeft=3;spacingRight=3;rotatable=0;labelPosition=right;points=[];portConstraint=eastwest;" parent="o0rBGFumHpDZ31UL0egZ-2" vertex="1">
          <mxGeometry y="42" width="190" height="8" as="geometry"/>
        </mxCell>
        <mxCell id="o0rBGFumHpDZ31UL0egZ-5" value="+ perimeter(): double" style="text;strokeColor=none;fillColor=none;align=left;verticalAlign=top;spacingLeft=4;spacingRight=4;overflow=hidden;rotatable=0;points=[[0,0.5],[1,0.5]];portConstraint=eastwest;" parent="o0rBGFumHpDZ31UL0egZ-2" vertex="1">
          <mxGeometry y="50" width="190" height="26" as="geometry"/>
        </mxCell>
        <mxCell id="o0rBGFumHpDZ31UL0egZ-6" value="+ area(): double" style="text;strokeColor=none;fillColor=none;align=left;verticalAlign=top;spacingLeft=4;spacingRight=4;overflow=hidden;rotatable=0;points=[[0,0.5],[1,0.5]];portConstraint=eastwest;" parent="o0rBGFumHpDZ31UL0egZ-2" vertex="1">
          <mxGeometry y="76" width="190" height="26" as="geometry"/>
        </mxCell>
        <mxCell id="o0rBGFumHpDZ31UL0egZ-7" value="«interface»&#xa;Sown" style="swimlane;fontStyle=1;align=center;verticalAlign=top;childLayout=stackLayout;horizontal=1;startSize=42;horizontalStack=0;resizeParent=1;resizeParentMax=0;resizeLast=0;collapsible=1;marginBottom=0;" parent="o0rBGFumHpDZ31UL0egZ-1" vertex="1">
          <mxGeometry x="317.5" y="40" width="190" height="76" as="geometry"/>
        </mxCell>
        <mxCell id="o0rBGFumHpDZ31UL0egZ-9" value="" style="line;strokeWidth=1;fillColor=none;align=left;verticalAlign=middle;spacingTop=-1;spacingLeft=3;spacingRight=3;rotatable=0;labelPosition=right;points=[];portConstraint=eastwest;" parent="o0rBGFumHpDZ31UL0egZ-7" vertex="1">
          <mxGeometry y="42" width="190" height="8" as="geometry"/>
        </mxCell>
        <mxCell id="o0rBGFumHpDZ31UL0egZ-10" value="+ getCrop(): Crop" style="text;strokeColor=none;fillColor=none;align=left;verticalAlign=top;spacingLeft=4;spacingRight=4;overflow=hidden;rotatable=0;points=[[0,0.5],[1,0.5]];portConstraint=eastwest;" parent="o0rBGFumHpDZ31UL0egZ-7" vertex="1">
          <mxGeometry y="50" width="190" height="26" as="geometry"/>
        </mxCell>
        <mxCell id="o0rBGFumHpDZ31UL0egZ-11" value="Field" style="swimlane;fontStyle=1;align=center;verticalAlign=top;childLayout=stackLayout;horizontal=1;startSize=26;horizontalStack=0;resizeParent=1;resizeParentMax=0;resizeLast=0;collapsible=1;marginBottom=0;" parent="o0rBGFumHpDZ31UL0egZ-1" vertex="1">
          <mxGeometry x="185" y="270" width="225" height="432" as="geometry"/>
        </mxCell>
        <mxCell id="o0rBGFumHpDZ31UL0egZ-12" value="- edges : List&lt;vector&gt;" style="text;strokeColor=none;fillColor=none;align=left;verticalAlign=top;spacingLeft=4;spacingRight=4;overflow=hidden;rotatable=0;points=[[0,0.5],[1,0.5]];portConstraint=eastwest;" parent="o0rBGFumHpDZ31UL0egZ-11" vertex="1">
          <mxGeometry y="26" width="225" height="26" as="geometry"/>
        </mxCell>
        <mxCell id="o0rBGFumHpDZ31UL0egZ-15" value="- angles : List&lt;double&gt;" style="text;strokeColor=none;fillColor=none;align=left;verticalAlign=top;spacingLeft=4;spacingRight=4;overflow=hidden;rotatable=0;points=[[0,0.5],[1,0.5]];portConstraint=eastwest;" parent="o0rBGFumHpDZ31UL0egZ-11" vertex="1">
          <mxGeometry y="52" width="225" height="26" as="geometry"/>
        </mxCell>
        <mxCell id="o0rBGFumHpDZ31UL0egZ-20" value="- crop : Crop" style="text;strokeColor=none;fillColor=none;align=left;verticalAlign=top;spacingLeft=4;spacingRight=4;overflow=hidden;rotatable=0;points=[[0,0.5],[1,0.5]];portConstraint=eastwest;" parent="o0rBGFumHpDZ31UL0egZ-11" vertex="1">
          <mxGeometry y="78" width="225" height="26" as="geometry"/>
        </mxCell>
        <mxCell id="o0rBGFumHpDZ31UL0egZ-13" value="" style="line;strokeWidth=1;fillColor=none;align=left;verticalAlign=middle;spacingTop=-1;spacingLeft=3;spacingRight=3;rotatable=0;labelPosition=right;points=[];portConstraint=eastwest;" parent="o0rBGFumHpDZ31UL0egZ-11" vertex="1">
          <mxGeometry y="104" width="225" height="8" as="geometry"/>
        </mxCell>
        <mxCell id="o0rBGFumHpDZ31UL0egZ-14" value="+ perimeter(): double" style="text;strokeColor=none;fillColor=none;align=left;verticalAlign=top;spacingLeft=4;spacingRight=4;overflow=hidden;rotatable=0;points=[[0,0.5],[1,0.5]];portConstraint=eastwest;" parent="o0rBGFumHpDZ31UL0egZ-11" vertex="1">
          <mxGeometry y="112" width="225" height="26" as="geometry"/>
        </mxCell>
        <mxCell id="o0rBGFumHpDZ31UL0egZ-16" value="+ area(): double" style="text;strokeColor=none;fillColor=none;align=left;verticalAlign=top;spacingLeft=4;spacingRight=4;overflow=hidden;rotatable=0;points=[[0,0.5],[1,0.5]];portConstraint=eastwest;" parent="o0rBGFumHpDZ31UL0egZ-11" vertex="1">
          <mxGeometry y="138" width="225" height="26" as="geometry"/>
        </mxCell>
        <mxCell id="o0rBGFumHpDZ31UL0egZ-17" value="+ getCrop(): Crop" style="text;strokeColor=none;fillColor=none;align=left;verticalAlign=top;spacingLeft=4;spacingRight=4;overflow=hidden;rotatable=0;points=[[0,0.5],[1,0.5]];portConstraint=eastwest;" parent="o0rBGFumHpDZ31UL0egZ-11" vertex="1">
          <mxGeometry y="164" width="225" height="26" as="geometry"/>
        </mxCell>
        <mxCell id="o0rBGFumHpDZ31UL0egZ-18" value="- Field(List&lt;vector&gt;, List&lt;double&gt;, Crop)" style="text;strokeColor=none;fillColor=none;align=left;verticalAlign=top;spacingLeft=4;spacingRight=4;overflow=hidden;rotatable=0;points=[[0,0.5],[1,0.5]];portConstraint=eastwest;" parent="o0rBGFumHpDZ31UL0egZ-11" vertex="1">
          <mxGeometry y="190" width="225" height="26" as="geometry"/>
        </mxCell>
        <mxCell id="o0rBGFumHpDZ31UL0egZ-24" value="+ FieldBuilder" style="swimlane;fontStyle=1;align=center;verticalAlign=top;childLayout=stackLayout;horizontal=1;startSize=26;horizontalStack=0;resizeParent=1;resizeParentMax=0;resizeLast=0;collapsible=1;marginBottom=0;" parent="o0rBGFumHpDZ31UL0egZ-11" vertex="1">
          <mxGeometry y="216" width="225" height="216" as="geometry">
            <mxRectangle y="216" width="225" height="26" as="alternateBounds"/>
          </mxGeometry>
        </mxCell>
        <mxCell id="o0rBGFumHpDZ31UL0egZ-33" value="- crop : Crop" style="text;strokeColor=none;fillColor=none;align=left;verticalAlign=top;spacingLeft=4;spacingRight=4;overflow=hidden;rotatable=0;points=[[0,0.5],[1,0.5]];portConstraint=eastwest;" parent="o0rBGFumHpDZ31UL0egZ-24" vertex="1">
          <mxGeometry y="26" width="225" height="26" as="geometry"/>
        </mxCell>
        <mxCell id="o0rBGFumHpDZ31UL0egZ-32" value="- angles : List&lt;double&gt;" style="text;strokeColor=none;fillColor=none;align=left;verticalAlign=top;spacingLeft=4;spacingRight=4;overflow=hidden;rotatable=0;points=[[0,0.5],[1,0.5]];portConstraint=eastwest;" parent="o0rBGFumHpDZ31UL0egZ-24" vertex="1">
          <mxGeometry y="52" width="225" height="26" as="geometry"/>
        </mxCell>
        <mxCell id="o0rBGFumHpDZ31UL0egZ-31" value="- edges : List&lt;vector&gt;" style="text;strokeColor=none;fillColor=none;align=left;verticalAlign=top;spacingLeft=4;spacingRight=4;overflow=hidden;rotatable=0;points=[[0,0.5],[1,0.5]];portConstraint=eastwest;" parent="o0rBGFumHpDZ31UL0egZ-24" vertex="1">
          <mxGeometry y="78" width="225" height="26" as="geometry"/>
        </mxCell>
        <mxCell id="o0rBGFumHpDZ31UL0egZ-26" value="" style="line;strokeWidth=1;fillColor=none;align=left;verticalAlign=middle;spacingTop=-1;spacingLeft=3;spacingRight=3;rotatable=0;labelPosition=right;points=[];portConstraint=eastwest;" parent="o0rBGFumHpDZ31UL0egZ-24" vertex="1">
          <mxGeometry y="104" width="225" height="8" as="geometry"/>
        </mxCell>
        <mxCell id="o0rBGFumHpDZ31UL0egZ-27" value="+ setEdges(List&lt;vector&gt;): FieldBuilder" style="text;strokeColor=none;fillColor=none;align=left;verticalAlign=top;spacingLeft=4;spacingRight=4;overflow=hidden;rotatable=0;points=[[0,0.5],[1,0.5]];portConstraint=eastwest;" parent="o0rBGFumHpDZ31UL0egZ-24" vertex="1">
          <mxGeometry y="112" width="225" height="26" as="geometry"/>
        </mxCell>
        <mxCell id="o0rBGFumHpDZ31UL0egZ-34" value="+ setAngles(List&lt;double&gt;): FieldBuilder" style="text;strokeColor=none;fillColor=none;align=left;verticalAlign=top;spacingLeft=4;spacingRight=4;overflow=hidden;rotatable=0;points=[[0,0.5],[1,0.5]];portConstraint=eastwest;" parent="o0rBGFumHpDZ31UL0egZ-24" vertex="1">
          <mxGeometry y="138" width="225" height="26" as="geometry"/>
        </mxCell>
        <mxCell id="o0rBGFumHpDZ31UL0egZ-35" value="+ setCrop(Crop): FieldBuilder" style="text;strokeColor=none;fillColor=none;align=left;verticalAlign=top;spacingLeft=4;spacingRight=4;overflow=hidden;rotatable=0;points=[[0,0.5],[1,0.5]];portConstraint=eastwest;" parent="o0rBGFumHpDZ31UL0egZ-24" vertex="1">
          <mxGeometry y="164" width="225" height="26" as="geometry"/>
        </mxCell>
        <mxCell id="o0rBGFumHpDZ31UL0egZ-36" value="+ build(): Field" style="text;strokeColor=none;fillColor=none;align=left;verticalAlign=top;spacingLeft=4;spacingRight=4;overflow=hidden;rotatable=0;points=[[0,0.5],[1,0.5]];portConstraint=eastwest;" parent="o0rBGFumHpDZ31UL0egZ-24" vertex="1">
          <mxGeometry y="190" width="225" height="26" as="geometry"/>
        </mxCell>
        <mxCell id="o0rBGFumHpDZ31UL0egZ-22" value="" style="endArrow=block;dashed=1;endFill=0;endSize=12;html=1;entryX=0.495;entryY=1.038;entryDx=0;entryDy=0;entryPerimeter=0;exitX=0.5;exitY=0;exitDx=0;exitDy=0;edgeStyle=elbowEdgeStyle;comic=0;elbow=vertical;rounded=0;" parent="o0rBGFumHpDZ31UL0egZ-1" source="o0rBGFumHpDZ31UL0egZ-11" target="o0rBGFumHpDZ31UL0egZ-6" edge="1">
          <mxGeometry width="160" relative="1" as="geometry">
            <mxPoint x="220" y="190" as="sourcePoint"/>
            <mxPoint x="380" y="190" as="targetPoint"/>
            <Array as="points">
              <mxPoint x="280" y="200"/>
            </Array>
          </mxGeometry>
        </mxCell>
        <mxCell id="o0rBGFumHpDZ31UL0egZ-23" value="" style="endArrow=block;dashed=1;endFill=0;endSize=12;html=1;exitX=0.5;exitY=0;exitDx=0;exitDy=0;entryX=0.508;entryY=1.015;entryDx=0;entryDy=0;entryPerimeter=0;edgeStyle=orthogonalEdgeStyle;comic=0;elbow=vertical;rounded=0;" parent="o0rBGFumHpDZ31UL0egZ-1" source="o0rBGFumHpDZ31UL0egZ-11" target="o0rBGFumHpDZ31UL0egZ-10" edge="1">
          <mxGeometry width="160" relative="1" as="geometry">
            <mxPoint x="327.5" y="280" as="sourcePoint"/>
            <mxPoint x="514" y="170" as="targetPoint"/>
            <Array as="points">
              <mxPoint x="297" y="200"/>
              <mxPoint x="497" y="200"/>
            </Array>
          </mxGeometry>
        </mxCell>
        <mxCell id="o0rBGFumHpDZ31UL0egZ-37" value="«interface»&#xa;YieldStrategy" style="swimlane;fontStyle=1;align=center;verticalAlign=top;childLayout=stackLayout;horizontal=1;startSize=42;horizontalStack=0;resizeParent=1;resizeParentMax=0;resizeLast=0;collapsible=1;marginBottom=0;" parent="o0rBGFumHpDZ31UL0egZ-1" vertex="1">
          <mxGeometry x="770" y="309" width="190" height="76" as="geometry"/>
        </mxCell>
        <mxCell id="o0rBGFumHpDZ31UL0egZ-39" value="" style="line;strokeWidth=1;fillColor=none;align=left;verticalAlign=middle;spacingTop=-1;spacingLeft=3;spacingRight=3;rotatable=0;labelPosition=right;points=[];portConstraint=eastwest;" parent="o0rBGFumHpDZ31UL0egZ-37" vertex="1">
          <mxGeometry y="42" width="190" height="8" as="geometry"/>
        </mxCell>
        <mxCell id="o0rBGFumHpDZ31UL0egZ-40" value="+ calcYield(field: Field) : double" style="text;strokeColor=none;fillColor=none;align=left;verticalAlign=top;spacingLeft=4;spacingRight=4;overflow=hidden;rotatable=0;points=[[0,0.5],[1,0.5]];portConstraint=eastwest;" parent="o0rBGFumHpDZ31UL0egZ-37" vertex="1">
          <mxGeometry y="50" width="190" height="26" as="geometry"/>
        </mxCell>
        <mxCell id="o0rBGFumHpDZ31UL0egZ-41" value="Yield" style="swimlane;fontStyle=1;align=center;verticalAlign=top;childLayout=stackLayout;horizontal=1;startSize=26;horizontalStack=0;resizeParent=1;resizeParentMax=0;resizeLast=0;collapsible=1;marginBottom=0;" parent="o0rBGFumHpDZ31UL0egZ-1" vertex="1">
          <mxGeometry x="777.5" y="429" width="175" height="112" as="geometry"/>
        </mxCell>
        <mxCell id="o0rBGFumHpDZ31UL0egZ-45" value="- yieldValue: double" style="text;strokeColor=none;fillColor=none;align=left;verticalAlign=top;spacingLeft=4;spacingRight=4;overflow=hidden;rotatable=0;points=[[0,0.5],[1,0.5]];portConstraint=eastwest;" parent="o0rBGFumHpDZ31UL0egZ-41" vertex="1">
          <mxGeometry y="26" width="175" height="26" as="geometry"/>
        </mxCell>
        <mxCell id="o0rBGFumHpDZ31UL0egZ-43" value="" style="line;strokeWidth=1;fillColor=none;align=left;verticalAlign=middle;spacingTop=-1;spacingLeft=3;spacingRight=3;rotatable=0;labelPosition=right;points=[];portConstraint=eastwest;" parent="o0rBGFumHpDZ31UL0egZ-41" vertex="1">
          <mxGeometry y="52" width="175" height="8" as="geometry"/>
        </mxCell>
        <mxCell id="o0rBGFumHpDZ31UL0egZ-44" value="+ Yield(yieldValue: double)" style="text;strokeColor=none;fillColor=none;align=left;verticalAlign=top;spacingLeft=4;spacingRight=4;overflow=hidden;rotatable=0;points=[[0,0.5],[1,0.5]];portConstraint=eastwest;" parent="o0rBGFumHpDZ31UL0egZ-41" vertex="1">
          <mxGeometry y="60" width="175" height="26" as="geometry"/>
        </mxCell>
        <mxCell id="o0rBGFumHpDZ31UL0egZ-85" value="+ calcYield(field: Field): double" style="text;strokeColor=none;fillColor=none;align=left;verticalAlign=top;spacingLeft=4;spacingRight=4;overflow=hidden;rotatable=0;points=[[0,0.5],[1,0.5]];portConstraint=eastwest;" parent="o0rBGFumHpDZ31UL0egZ-41" vertex="1">
          <mxGeometry y="86" width="175" height="26" as="geometry"/>
        </mxCell>
        <mxCell id="o0rBGFumHpDZ31UL0egZ-52" value="" style="endArrow=block;dashed=1;endFill=0;endSize=12;html=1;entryX=0.485;entryY=1.031;entryDx=0;entryDy=0;entryPerimeter=0;exitX=0.5;exitY=0;exitDx=0;exitDy=0;" parent="o0rBGFumHpDZ31UL0egZ-1" source="o0rBGFumHpDZ31UL0egZ-41" target="o0rBGFumHpDZ31UL0egZ-40" edge="1">
          <mxGeometry width="160" relative="1" as="geometry">
            <mxPoint x="577.5" y="479" as="sourcePoint"/>
            <mxPoint x="514.02" y="355.39" as="targetPoint"/>
          </mxGeometry>
        </mxCell>
        <mxCell id="o0rBGFumHpDZ31UL0egZ-53" value="Farm" style="swimlane;fontStyle=1;align=center;verticalAlign=top;childLayout=stackLayout;horizontal=1;startSize=26;horizontalStack=0;resizeParent=1;resizeParentMax=0;resizeLast=0;collapsible=1;marginBottom=0;" parent="o0rBGFumHpDZ31UL0egZ-1" vertex="1">
          <mxGeometry x="730" y="40" width="160" height="112" as="geometry"/>
        </mxCell>
        <mxCell id="o0rBGFumHpDZ31UL0egZ-54" value="- fields: List&lt;Field&gt;" style="text;strokeColor=none;fillColor=none;align=left;verticalAlign=top;spacingLeft=4;spacingRight=4;overflow=hidden;rotatable=0;points=[[0,0.5],[1,0.5]];portConstraint=eastwest;" parent="o0rBGFumHpDZ31UL0egZ-53" vertex="1">
          <mxGeometry y="26" width="160" height="26" as="geometry"/>
        </mxCell>
        <mxCell id="o0rBGFumHpDZ31UL0egZ-55" value="" style="line;strokeWidth=1;fillColor=none;align=left;verticalAlign=middle;spacingTop=-1;spacingLeft=3;spacingRight=3;rotatable=0;labelPosition=right;points=[];portConstraint=eastwest;" parent="o0rBGFumHpDZ31UL0egZ-53" vertex="1">
          <mxGeometry y="52" width="160" height="8" as="geometry"/>
        </mxCell>
        <mxCell id="o0rBGFumHpDZ31UL0egZ-56" value="+ Farm()" style="text;strokeColor=none;fillColor=none;align=left;verticalAlign=top;spacingLeft=4;spacingRight=4;overflow=hidden;rotatable=0;points=[[0,0.5],[1,0.5]];portConstraint=eastwest;" parent="o0rBGFumHpDZ31UL0egZ-53" vertex="1">
          <mxGeometry y="60" width="160" height="26" as="geometry"/>
        </mxCell>
        <mxCell id="o0rBGFumHpDZ31UL0egZ-88" value="+ init()" style="text;strokeColor=none;fillColor=none;align=left;verticalAlign=top;spacingLeft=4;spacingRight=4;overflow=hidden;rotatable=0;points=[[0,0.5],[1,0.5]];portConstraint=eastwest;" parent="o0rBGFumHpDZ31UL0egZ-53" vertex="1">
          <mxGeometry y="86" width="160" height="26" as="geometry"/>
        </mxCell>
        <mxCell id="o0rBGFumHpDZ31UL0egZ-75" value="Crop" style="swimlane;fontStyle=1;align=center;verticalAlign=top;childLayout=stackLayout;horizontal=1;startSize=26;horizontalStack=0;resizeParent=1;resizeParentMax=0;resizeLast=0;collapsible=1;marginBottom=0;" parent="o0rBGFumHpDZ31UL0egZ-1" vertex="1">
          <mxGeometry x="490" y="280" width="213" height="164" as="geometry"/>
        </mxCell>
        <mxCell id="o0rBGFumHpDZ31UL0egZ-76" value="- name: String" style="text;strokeColor=none;fillColor=none;align=left;verticalAlign=top;spacingLeft=4;spacingRight=4;overflow=hidden;rotatable=0;points=[[0,0.5],[1,0.5]];portConstraint=eastwest;" parent="o0rBGFumHpDZ31UL0egZ-75" vertex="1">
          <mxGeometry y="26" width="213" height="26" as="geometry"/>
        </mxCell>
        <mxCell id="o0rBGFumHpDZ31UL0egZ-79" value="- yield: YieldStrategy" style="text;strokeColor=none;fillColor=none;align=left;verticalAlign=top;spacingLeft=4;spacingRight=4;overflow=hidden;rotatable=0;points=[[0,0.5],[1,0.5]];portConstraint=eastwest;" parent="o0rBGFumHpDZ31UL0egZ-75" vertex="1">
          <mxGeometry y="52" width="213" height="26" as="geometry"/>
        </mxCell>
        <mxCell id="o0rBGFumHpDZ31UL0egZ-77" value="" style="line;strokeWidth=1;fillColor=none;align=left;verticalAlign=middle;spacingTop=-1;spacingLeft=3;spacingRight=3;rotatable=0;labelPosition=right;points=[];portConstraint=eastwest;" parent="o0rBGFumHpDZ31UL0egZ-75" vertex="1">
          <mxGeometry y="78" width="213" height="8" as="geometry"/>
        </mxCell>
        <mxCell id="o0rBGFumHpDZ31UL0egZ-78" value="+ Crop(name: String, yield: Yield)" style="text;strokeColor=none;fillColor=none;align=left;verticalAlign=top;spacingLeft=4;spacingRight=4;overflow=hidden;rotatable=0;points=[[0,0.5],[1,0.5]];portConstraint=eastwest;" parent="o0rBGFumHpDZ31UL0egZ-75" vertex="1">
          <mxGeometry y="86" width="213" height="26" as="geometry"/>
        </mxCell>
        <mxCell id="o0rBGFumHpDZ31UL0egZ-82" value="+ getName(): String" style="text;strokeColor=none;fillColor=none;align=left;verticalAlign=top;spacingLeft=4;spacingRight=4;overflow=hidden;rotatable=0;points=[[0,0.5],[1,0.5]];portConstraint=eastwest;" parent="o0rBGFumHpDZ31UL0egZ-75" vertex="1">
          <mxGeometry y="112" width="213" height="26" as="geometry"/>
        </mxCell>
        <mxCell id="o0rBGFumHpDZ31UL0egZ-83" value="+ getYield() : YieldStrategy" style="text;strokeColor=none;fillColor=none;align=left;verticalAlign=top;spacingLeft=4;spacingRight=4;overflow=hidden;rotatable=0;points=[[0,0.5],[1,0.5]];portConstraint=eastwest;" parent="o0rBGFumHpDZ31UL0egZ-75" vertex="1">
          <mxGeometry y="138" width="213" height="26" as="geometry"/>
        </mxCell>
        <mxCell id="o0rBGFumHpDZ31UL0egZ-84" value="" style="endArrow=diamondThin;endFill=1;endSize=24;html=1;entryX=1;entryY=0.5;entryDx=0;entryDy=0;exitX=0;exitY=0.5;exitDx=0;exitDy=0;" parent="o0rBGFumHpDZ31UL0egZ-1" source="o0rBGFumHpDZ31UL0egZ-75" target="o0rBGFumHpDZ31UL0egZ-20" edge="1">
          <mxGeometry width="160" relative="1" as="geometry">
            <mxPoint x="541.5" y="365.5" as="sourcePoint"/>
            <mxPoint x="620" y="370" as="targetPoint"/>
          </mxGeometry>
        </mxCell>
        <mxCell id="o0rBGFumHpDZ31UL0egZ-87" value="" style="endArrow=diamondThin;endFill=0;endSize=24;html=1;fontColor=none;entryX=1;entryY=0.5;entryDx=0;entryDy=0;exitX=0;exitY=0.5;exitDx=0;exitDy=0;" parent="o0rBGFumHpDZ31UL0egZ-1" source="o0rBGFumHpDZ31UL0egZ-37" target="o0rBGFumHpDZ31UL0egZ-79" edge="1">
          <mxGeometry width="160" relative="1" as="geometry">
            <mxPoint x="670" y="490" as="sourcePoint"/>
            <mxPoint x="830" y="490" as="targetPoint"/>
          </mxGeometry>
        </mxCell>
      </root>
    </mxGraphModel>
  </diagram>
  <diagram name="Sequence Diagram Cheat Sheet" id="239YgFxSCNsQnWpkmsz8">
    <mxGraphModel dx="1182" dy="715" grid="1" gridSize="10" guides="1" tooltips="1" connect="1" arrows="1" fold="1" page="1" pageScale="1" pageWidth="1100" pageHeight="850" math="0" shadow="0">
      <root>
        <mxCell id="u49wz4LWu7T6QShFxTAh-0"/>
        <mxCell id="u49wz4LWu7T6QShFxTAh-1" parent="u49wz4LWu7T6QShFxTAh-0"/>
        <mxCell id="u49wz4LWu7T6QShFxTAh-2" value=":Farm" style="shape=umlLifeline;perimeter=lifelinePerimeter;whiteSpace=wrap;html=1;container=1;collapsible=0;recursiveResize=0;outlineConnect=0;" parent="u49wz4LWu7T6QShFxTAh-1" vertex="1">
          <mxGeometry x="290" y="150" width="100" height="590" as="geometry"/>
        </mxCell>
        <mxCell id="u49wz4LWu7T6QShFxTAh-30" value="" style="html=1;points=[];perimeter=orthogonalPerimeter;fontSize=10;" parent="u49wz4LWu7T6QShFxTAh-2" vertex="1">
          <mxGeometry x="45" y="180" width="10" height="280" as="geometry"/>
        </mxCell>
        <mxCell id="u49wz4LWu7T6QShFxTAh-3" value="action()" style="html=1;verticalAlign=bottom;startArrow=circle;startFill=1;endArrow=open;startSize=6;endSize=8;entryX=0;entryY=0.033;entryDx=0;entryDy=0;entryPerimeter=0;" parent="u49wz4LWu7T6QShFxTAh-1" target="u49wz4LWu7T6QShFxTAh-2" edge="1">
          <mxGeometry width="80" relative="1" as="geometry">
            <mxPoint x="180" y="170" as="sourcePoint"/>
            <mxPoint x="270" y="170" as="targetPoint"/>
          </mxGeometry>
        </mxCell>
        <mxCell id="u49wz4LWu7T6QShFxTAh-8" value="new(&quot;corn&quot;, yield)" style="html=1;verticalAlign=bottom;endArrow=open;endFill=0;endSize=8;entryX=0;entryY=0.04;entryDx=0;entryDy=0;entryPerimeter=0;exitX=1;exitY=0.025;exitDx=0;exitDy=0;exitPerimeter=0;" parent="u49wz4LWu7T6QShFxTAh-1" source="u49wz4LWu7T6QShFxTAh-30" target="u49wz4LWu7T6QShFxTAh-16" edge="1">
          <mxGeometry x="0.2593" width="80" relative="1" as="geometry">
            <mxPoint x="370" y="339" as="sourcePoint"/>
            <mxPoint x="460" y="340" as="targetPoint"/>
            <mxPoint as="offset"/>
          </mxGeometry>
        </mxCell>
        <mxCell id="u49wz4LWu7T6QShFxTAh-16" value="crop:Crop" style="shape=umlLifeline;perimeter=lifelinePerimeter;whiteSpace=wrap;html=1;container=1;collapsible=0;recursiveResize=0;outlineConnect=0;" parent="u49wz4LWu7T6QShFxTAh-1" vertex="1">
          <mxGeometry x="480" y="320" width="100" height="420" as="geometry"/>
        </mxCell>
        <mxCell id="u49wz4LWu7T6QShFxTAh-33" value="" style="html=1;points=[];perimeter=orthogonalPerimeter;fontSize=10;" parent="u49wz4LWu7T6QShFxTAh-16" vertex="1">
          <mxGeometry x="45" y="120" width="10" height="40" as="geometry"/>
        </mxCell>
        <mxCell id="u49wz4LWu7T6QShFxTAh-38" value="" style="html=1;points=[];perimeter=orthogonalPerimeter;fontSize=10;" parent="u49wz4LWu7T6QShFxTAh-16" vertex="1">
          <mxGeometry x="45" y="240" width="10" height="40" as="geometry"/>
        </mxCell>
        <mxCell id="u49wz4LWu7T6QShFxTAh-27" value="&lt;p style=&quot;line-height: 120%&quot;&gt;Object or instance. If named, &amp;lt;name&amp;gt;:&amp;lt;type&amp;gt;.&amp;nbsp; Otherwise just :&amp;lt;type&amp;gt;&lt;/p&gt;" style="whiteSpace=wrap;html=1;shape=mxgraph.basic.cloud_callout;labelPosition=center;verticalLabelPosition=middle;align=center;verticalAlign=middle;fontSize=10;spacingTop=-16;flipV=0;flipH=1;" parent="u49wz4LWu7T6QShFxTAh-1" vertex="1">
          <mxGeometry x="190" y="40" width="160" height="110" as="geometry"/>
        </mxCell>
        <mxCell id="u49wz4LWu7T6QShFxTAh-29" value="&lt;p style=&quot;line-height: 120%&quot;&gt;Lifeline.&amp;nbsp; The object exists as long as the line exists.&lt;/p&gt;" style="whiteSpace=wrap;html=1;shape=mxgraph.basic.cloud_callout;labelPosition=center;verticalLabelPosition=middle;align=center;verticalAlign=middle;fontSize=10;spacingTop=-20;flipV=0;flipH=0;" parent="u49wz4LWu7T6QShFxTAh-1" vertex="1">
          <mxGeometry x="340" y="190" width="160" height="110" as="geometry"/>
        </mxCell>
        <mxCell id="YWQMciwb11VPvAm_uk-K-1" value="&lt;p style=&quot;line-height: 120%&quot;&gt;Frame.&amp;nbsp;Indicates a repeated section, conditional, or alternate code. &lt;font color=&quot;#cc0000&quot;&gt;It is better not to use these; separate diagrams are clearer.&lt;/font&gt;&lt;/p&gt;" style="whiteSpace=wrap;html=1;shape=mxgraph.basic.cloud_callout;labelPosition=center;verticalLabelPosition=middle;align=center;verticalAlign=middle;fontSize=10;spacingTop=-16;flipV=0;flipH=0;" parent="u49wz4LWu7T6QShFxTAh-1" vertex="1">
          <mxGeometry x="580" y="170" width="230" height="140" as="geometry"/>
        </mxCell>
        <mxCell id="u49wz4LWu7T6QShFxTAh-31" value="&lt;p style=&quot;line-height: 120%&quot;&gt;Activation.&amp;nbsp;This indicates the object is active at this time.&lt;/p&gt;" style="whiteSpace=wrap;html=1;shape=mxgraph.basic.cloud_callout;labelPosition=center;verticalLabelPosition=middle;align=center;verticalAlign=middle;fontSize=10;spacingTop=-20;flipV=0;flipH=1;" parent="u49wz4LWu7T6QShFxTAh-1" vertex="1">
          <mxGeometry x="160" y="330" width="180" height="110" as="geometry"/>
        </mxCell>
        <mxCell id="u49wz4LWu7T6QShFxTAh-32" value="&lt;p style=&quot;line-height: 120%&quot;&gt;Construction (object creation).&lt;/p&gt;" style="whiteSpace=wrap;html=1;shape=mxgraph.basic.cloud_callout;labelPosition=center;verticalLabelPosition=middle;align=center;verticalAlign=middle;fontSize=10;spacingTop=16;flipV=1;flipH=0;" parent="u49wz4LWu7T6QShFxTAh-1" vertex="1">
          <mxGeometry x="410" y="340" width="120" height="80" as="geometry"/>
        </mxCell>
        <mxCell id="u49wz4LWu7T6QShFxTAh-42" value="&lt;p style=&quot;line-height: 120%&quot;&gt;Destruction (object deletion).&lt;/p&gt;" style="whiteSpace=wrap;html=1;shape=mxgraph.basic.cloud_callout;labelPosition=center;verticalLabelPosition=middle;align=center;verticalAlign=middle;fontSize=10;spacingTop=-16;flipV=0;flipH=1;" parent="u49wz4LWu7T6QShFxTAh-1" vertex="1">
          <mxGeometry x="395" y="645" width="120" height="80" as="geometry"/>
        </mxCell>
        <mxCell id="u49wz4LWu7T6QShFxTAh-36" value="&lt;p style=&quot;line-height: 120%&quot;&gt;Method call with return value&lt;/p&gt;" style="whiteSpace=wrap;html=1;shape=mxgraph.basic.cloud_callout;labelPosition=center;verticalLabelPosition=middle;align=center;verticalAlign=middle;fontSize=10;spacingTop=20;flipV=1;flipH=0;" parent="u49wz4LWu7T6QShFxTAh-1" vertex="1">
          <mxGeometry x="410" y="440" width="120" height="80" as="geometry"/>
        </mxCell>
        <mxCell id="u49wz4LWu7T6QShFxTAh-37" value="&lt;p style=&quot;line-height: 120%&quot;&gt;Method call with return value&lt;/p&gt;" style="whiteSpace=wrap;html=1;shape=mxgraph.basic.cloud_callout;labelPosition=center;verticalLabelPosition=middle;align=center;verticalAlign=middle;fontSize=10;spacingTop=20;flipV=1;flipH=0;" parent="u49wz4LWu7T6QShFxTAh-1" vertex="1">
          <mxGeometry x="530" y="580" width="120" height="80" as="geometry"/>
        </mxCell>
        <mxCell id="u49wz4LWu7T6QShFxTAh-28" value="&lt;p style=&quot;line-height: 120%&quot;&gt;Starting action.&amp;nbsp; This could be an actor or another object.&amp;nbsp; This is a &quot;found&quot; message (no owning object).&lt;/p&gt;" style="whiteSpace=wrap;html=1;shape=mxgraph.basic.cloud_callout;labelPosition=center;verticalLabelPosition=middle;align=center;verticalAlign=middle;fontSize=10;spacingTop=31;flipV=1;flipH=1;" parent="u49wz4LWu7T6QShFxTAh-1" vertex="1">
          <mxGeometry x="40" y="170" width="200" height="120" as="geometry"/>
        </mxCell>
        <mxCell id="u49wz4LWu7T6QShFxTAh-34" value="name = getName()" style="rounded=0;orthogonalLoop=1;jettySize=auto;html=1;endArrow=open;endFill=0;endSize=8;fontSize=10;align=center;entryX=0;entryY=0;entryDx=0;entryDy=0;entryPerimeter=0;verticalAlign=bottom;exitX=1;exitY=0.39;exitDx=0;exitDy=0;exitPerimeter=0;" parent="u49wz4LWu7T6QShFxTAh-1" source="u49wz4LWu7T6QShFxTAh-30" target="u49wz4LWu7T6QShFxTAh-33" edge="1">
          <mxGeometry x="0.2778" relative="1" as="geometry">
            <mxPoint x="510" y="440" as="targetPoint"/>
            <mxPoint x="360" y="440" as="sourcePoint"/>
            <mxPoint as="offset"/>
          </mxGeometry>
        </mxCell>
        <mxCell id="u49wz4LWu7T6QShFxTAh-39" value="getName()" style="rounded=0;orthogonalLoop=1;jettySize=auto;html=1;endArrow=open;endFill=0;endSize=8;fontSize=10;align=center;entryX=0;entryY=0;entryDx=0;entryDy=0;entryPerimeter=0;verticalAlign=bottom;exitX=1;exitY=0.75;exitDx=0;exitDy=0;exitPerimeter=0;" parent="u49wz4LWu7T6QShFxTAh-1" target="u49wz4LWu7T6QShFxTAh-38" edge="1">
          <mxGeometry x="0.5" relative="1" as="geometry">
            <mxPoint x="514.5" y="550" as="targetPoint"/>
            <mxPoint x="345" y="560" as="sourcePoint"/>
            <mxPoint as="offset"/>
          </mxGeometry>
        </mxCell>
        <mxCell id="u49wz4LWu7T6QShFxTAh-40" value="name" style="rounded=0;orthogonalLoop=1;jettySize=auto;html=1;endArrow=open;endFill=0;endSize=8;fontSize=10;align=center;verticalAlign=bottom;exitX=0;exitY=1;exitDx=0;exitDy=0;exitPerimeter=0;entryX=1;entryY=0.90;entryDx=0;entryDy=0;entryPerimeter=0;" parent="u49wz4LWu7T6QShFxTAh-1" source="u49wz4LWu7T6QShFxTAh-38" edge="1">
          <mxGeometry x="0.6112" relative="1" as="geometry">
            <mxPoint x="345" y="602" as="targetPoint"/>
            <mxPoint x="510" y="600" as="sourcePoint"/>
            <mxPoint as="offset"/>
          </mxGeometry>
        </mxCell>
        <mxCell id="u49wz4LWu7T6QShFxTAh-41" value="" style="shape=umlDestroy;whiteSpace=wrap;html=1;strokeWidth=3;fontSize=10;align=center;" parent="u49wz4LWu7T6QShFxTAh-1" vertex="1">
          <mxGeometry x="515" y="725" width="30" height="30" as="geometry"/>
        </mxCell>
        <mxCell id="YWQMciwb11VPvAm_uk-K-0" value="frame" style="shape=umlFrame;whiteSpace=wrap;html=1;" parent="u49wz4LWu7T6QShFxTAh-1" vertex="1">
          <mxGeometry x="130" y="310" width="490" height="220" as="geometry"/>
        </mxCell>
      </root>
    </mxGraphModel>
  </diagram>
  <diagram id="ldT7lg1rQgqx2ngdOun9" name="Init Sequence Diagram">
    <mxGraphModel dx="1182" dy="715" grid="1" gridSize="10" guides="1" tooltips="1" connect="1" arrows="1" fold="1" page="1" pageScale="1" pageWidth="1100" pageHeight="850" math="0" shadow="0">
      <root>
        <mxCell id="0"/>
        <mxCell id="1" parent="0"/>
        <mxCell id="n0gZBFRLEEgWFvBzLIYG-1" value=":Farm" style="shape=umlLifeline;perimeter=lifelinePerimeter;whiteSpace=wrap;html=1;container=1;collapsible=0;recursiveResize=0;outlineConnect=0;" parent="1" vertex="1">
          <mxGeometry x="140" y="40" width="100" height="600" as="geometry"/>
        </mxCell>
        <mxCell id="E-Z1CiS3QGQYrQ7iNV9j-1" value="new()" style="html=1;verticalAlign=bottom;startArrow=circle;startFill=1;endArrow=open;startSize=6;endSize=8;entryX=0;entryY=0.033;entryDx=0;entryDy=0;entryPerimeter=0;" parent="1" target="n0gZBFRLEEgWFvBzLIYG-1" edge="1">
          <mxGeometry width="80" relative="1" as="geometry">
            <mxPoint x="30" y="60" as="sourcePoint"/>
            <mxPoint x="120" y="60" as="targetPoint"/>
          </mxGeometry>
        </mxCell>
        <mxCell id="E-Z1CiS3QGQYrQ7iNV9j-5" value="init()" style="html=1;verticalAlign=bottom;startArrow=circle;startFill=1;endArrow=open;startSize=6;endSize=8;entryX=0;entryY=0;entryDx=0;entryDy=0;entryPerimeter=0;" parent="1" target="E-Z1CiS3QGQYrQ7iNV9j-3" edge="1">
          <mxGeometry width="80" relative="1" as="geometry">
            <mxPoint x="280" y="100.5" as="sourcePoint"/>
            <mxPoint x="400" y="98" as="targetPoint"/>
          </mxGeometry>
        </mxCell>
        <mxCell id="E-Z1CiS3QGQYrQ7iNV9j-2" value=":Farm" style="shape=umlLifeline;perimeter=lifelinePerimeter;whiteSpace=wrap;html=1;container=1;collapsible=0;recursiveResize=0;outlineConnect=0;" parent="1" vertex="1">
          <mxGeometry x="350" y="40" width="100" height="600" as="geometry"/>
        </mxCell>
        <mxCell id="E-Z1CiS3QGQYrQ7iNV9j-3" value="" style="html=1;points=[];perimeter=orthogonalPerimeter;" parent="E-Z1CiS3QGQYrQ7iNV9j-2" vertex="1">
          <mxGeometry x="45" y="60" width="10" height="480" as="geometry"/>
        </mxCell>
        <mxCell id="E-Z1CiS3QGQYrQ7iNV9j-6" value="new(1)" style="html=1;verticalAlign=bottom;endArrow=open;exitX=0.95;exitY=0.041;exitDx=0;exitDy=0;exitPerimeter=0;endFill=0;endSize=8;entryX=0;entryY=0.036;entryDx=0;entryDy=0;entryPerimeter=0;" parent="1" source="E-Z1CiS3QGQYrQ7iNV9j-3" target="E-Z1CiS3QGQYrQ7iNV9j-7" edge="1">
          <mxGeometry width="80" relative="1" as="geometry">
            <mxPoint x="430" y="120" as="sourcePoint"/>
            <mxPoint x="470" y="100" as="targetPoint"/>
          </mxGeometry>
        </mxCell>
        <mxCell id="E-Z1CiS3QGQYrQ7iNV9j-8" value="new(&quot;corn&quot;, yield)" style="html=1;verticalAlign=bottom;endArrow=open;exitX=1;exitY=0.165;exitDx=0;exitDy=0;exitPerimeter=0;endFill=0;endSize=8;entryX=0;entryY=0.038;entryDx=0;entryDy=0;entryPerimeter=0;" parent="1" source="E-Z1CiS3QGQYrQ7iNV9j-3" target="E-Z1CiS3QGQYrQ7iNV9j-9" edge="1">
          <mxGeometry x="0.5556" width="80" relative="1" as="geometry">
            <mxPoint x="420" y="180.17999999999995" as="sourcePoint"/>
            <mxPoint x="515.5" y="180.5" as="targetPoint"/>
            <mxPoint as="offset"/>
          </mxGeometry>
        </mxCell>
        <mxCell id="E-Z1CiS3QGQYrQ7iNV9j-11" value="new()" style="html=1;verticalAlign=bottom;endArrow=open;endFill=0;endSize=8;exitX=1;exitY=0.291;exitDx=0;exitDy=0;exitPerimeter=0;entryX=0;entryY=0.042;entryDx=0;entryDy=0;entryPerimeter=0;" parent="1" source="E-Z1CiS3QGQYrQ7iNV9j-3" target="E-Z1CiS3QGQYrQ7iNV9j-10" edge="1">
          <mxGeometry x="0.7808" width="80" relative="1" as="geometry">
            <mxPoint x="430" y="240" as="sourcePoint"/>
            <mxPoint x="750" y="240" as="targetPoint"/>
            <mxPoint as="offset"/>
          </mxGeometry>
        </mxCell>
        <mxCell id="E-Z1CiS3QGQYrQ7iNV9j-13" value="setEdges(...)" style="html=1;verticalAlign=bottom;endArrow=open;endFill=0;endSize=8;entryX=0;entryY=0;entryDx=0;entryDy=0;entryPerimeter=0;exitX=1;exitY=0.375;exitDx=0;exitDy=0;exitPerimeter=0;" parent="1" source="E-Z1CiS3QGQYrQ7iNV9j-3" target="E-Z1CiS3QGQYrQ7iNV9j-12" edge="1">
          <mxGeometry x="0.8082" width="80" relative="1" as="geometry">
            <mxPoint x="420" y="280" as="sourcePoint"/>
            <mxPoint x="785" y="270.65999999999997" as="targetPoint"/>
            <mxPoint as="offset"/>
          </mxGeometry>
        </mxCell>
        <mxCell id="E-Z1CiS3QGQYrQ7iNV9j-15" value="setAngles(...)" style="html=1;verticalAlign=bottom;endArrow=open;endFill=0;endSize=8;entryX=0;entryY=0;entryDx=0;entryDy=0;entryPerimeter=0;exitX=1;exitY=0.479;exitDx=0;exitDy=0;exitPerimeter=0;" parent="1" source="E-Z1CiS3QGQYrQ7iNV9j-3" target="E-Z1CiS3QGQYrQ7iNV9j-14" edge="1">
          <mxGeometry x="0.8082" width="80" relative="1" as="geometry">
            <mxPoint x="420" y="330" as="sourcePoint"/>
            <mxPoint x="785" y="320.65999999999997" as="targetPoint"/>
            <mxPoint as="offset"/>
          </mxGeometry>
        </mxCell>
        <mxCell id="E-Z1CiS3QGQYrQ7iNV9j-16" value="setCrop(crop)" style="html=1;verticalAlign=bottom;endArrow=open;endFill=0;endSize=8;entryX=0;entryY=0;entryDx=0;entryDy=0;entryPerimeter=0;exitX=1;exitY=0.581;exitDx=0;exitDy=0;exitPerimeter=0;" parent="1" source="E-Z1CiS3QGQYrQ7iNV9j-3" target="E-Z1CiS3QGQYrQ7iNV9j-17" edge="1">
          <mxGeometry x="0.8082" width="80" relative="1" as="geometry">
            <mxPoint x="420" y="380" as="sourcePoint"/>
            <mxPoint x="785" y="370.65999999999997" as="targetPoint"/>
            <mxPoint as="offset"/>
          </mxGeometry>
        </mxCell>
        <mxCell id="E-Z1CiS3QGQYrQ7iNV9j-18" value="build()" style="html=1;verticalAlign=bottom;endArrow=open;endFill=0;endSize=8;entryX=0;entryY=0;entryDx=0;entryDy=0;entryPerimeter=0;exitX=1;exitY=0.691;exitDx=0;exitDy=0;exitPerimeter=0;" parent="1" source="E-Z1CiS3QGQYrQ7iNV9j-3" target="E-Z1CiS3QGQYrQ7iNV9j-19" edge="1">
          <mxGeometry x="0.8082" width="80" relative="1" as="geometry">
            <mxPoint x="430" y="430" as="sourcePoint"/>
            <mxPoint x="785" y="420.65999999999997" as="targetPoint"/>
            <mxPoint as="offset"/>
          </mxGeometry>
        </mxCell>
        <mxCell id="E-Z1CiS3QGQYrQ7iNV9j-25" value="new(...)" style="html=1;verticalAlign=bottom;endArrow=open;endFill=0;endSize=8;exitX=1;exitY=0.25;exitDx=0;exitDy=0;exitPerimeter=0;entryX=0;entryY=0.091;entryDx=0;entryDy=0;entryPerimeter=0;" parent="1" source="E-Z1CiS3QGQYrQ7iNV9j-19" target="E-Z1CiS3QGQYrQ7iNV9j-20" edge="1">
          <mxGeometry x="0.2941" width="80" relative="1" as="geometry">
            <mxPoint x="830" y="440" as="sourcePoint"/>
            <mxPoint x="870" y="440" as="targetPoint"/>
            <mxPoint as="offset"/>
          </mxGeometry>
        </mxCell>
        <mxCell id="E-Z1CiS3QGQYrQ7iNV9j-7" value="yield:Yield" style="shape=umlLifeline;perimeter=lifelinePerimeter;whiteSpace=wrap;html=1;container=1;collapsible=0;recursiveResize=0;outlineConnect=0;" parent="1" vertex="1">
          <mxGeometry x="490" y="100" width="100" height="540" as="geometry"/>
        </mxCell>
        <mxCell id="E-Z1CiS3QGQYrQ7iNV9j-9" value="crop:Crop" style="shape=umlLifeline;perimeter=lifelinePerimeter;whiteSpace=wrap;html=1;container=1;collapsible=0;recursiveResize=0;outlineConnect=0;" parent="1" vertex="1">
          <mxGeometry x="630" y="160" width="100" height="480" as="geometry"/>
        </mxCell>
        <mxCell id="E-Z1CiS3QGQYrQ7iNV9j-10" value=":FieldBuilder" style="shape=umlLifeline;perimeter=lifelinePerimeter;whiteSpace=wrap;html=1;container=1;collapsible=0;recursiveResize=0;outlineConnect=0;" parent="1" vertex="1">
          <mxGeometry x="770" y="220" width="100" height="420" as="geometry"/>
        </mxCell>
        <mxCell id="E-Z1CiS3QGQYrQ7iNV9j-12" value="" style="html=1;points=[];perimeter=orthogonalPerimeter;" parent="E-Z1CiS3QGQYrQ7iNV9j-10" vertex="1">
          <mxGeometry x="45" y="60" width="10" height="40" as="geometry"/>
        </mxCell>
        <mxCell id="E-Z1CiS3QGQYrQ7iNV9j-14" value="" style="html=1;points=[];perimeter=orthogonalPerimeter;" parent="E-Z1CiS3QGQYrQ7iNV9j-10" vertex="1">
          <mxGeometry x="45" y="110" width="10" height="40" as="geometry"/>
        </mxCell>
        <mxCell id="E-Z1CiS3QGQYrQ7iNV9j-17" value="" style="html=1;points=[];perimeter=orthogonalPerimeter;" parent="E-Z1CiS3QGQYrQ7iNV9j-10" vertex="1">
          <mxGeometry x="45" y="160" width="10" height="40" as="geometry"/>
        </mxCell>
        <mxCell id="E-Z1CiS3QGQYrQ7iNV9j-19" value="" style="html=1;points=[];perimeter=orthogonalPerimeter;" parent="E-Z1CiS3QGQYrQ7iNV9j-10" vertex="1">
          <mxGeometry x="45" y="210" width="10" height="40" as="geometry"/>
        </mxCell>
        <mxCell id="E-Z1CiS3QGQYrQ7iNV9j-20" value=":Field" style="shape=umlLifeline;perimeter=lifelinePerimeter;whiteSpace=wrap;html=1;container=1;collapsible=0;recursiveResize=0;outlineConnect=0;" parent="1" vertex="1">
          <mxGeometry x="910" y="420" width="100" height="220" as="geometry"/>
        </mxCell>
        <mxCell id="xFNPSNqzApK9Lk23-oGU-1" value="" style="shape=umlDestroy;whiteSpace=wrap;html=1;strokeWidth=3;" vertex="1" parent="1">
          <mxGeometry x="805" y="630" width="30" height="30" as="geometry"/>
        </mxCell>
        <mxCell id="xFNPSNqzApK9Lk23-oGU-3" value="&lt;u style=&quot;font-weight: bold&quot;&gt;INITIALIZATION:&lt;/u&gt;&lt;br&gt;&lt;br&gt;continues until all fields are created" style="shape=note;whiteSpace=wrap;html=1;size=14;verticalAlign=top;align=left;spacingTop=-6;" vertex="1" parent="1">
          <mxGeometry x="650" y="30" width="100" height="70" as="geometry"/>
        </mxCell>
      </root>
    </mxGraphModel>
  </diagram>
  <diagram name="CalcYield Sequence Diagram" id="XVTDa0_ONT7xE5LUxNMN">
    <mxGraphModel dx="2048" dy="1091" grid="1" gridSize="10" guides="1" tooltips="1" connect="1" arrows="1" fold="1" page="1" pageScale="1" pageWidth="1100" pageHeight="850" math="0" shadow="0">
      <root>
        <mxCell id="JbDq3TnTa2djjw5Sv12C-0"/>
        <mxCell id="JbDq3TnTa2djjw5Sv12C-1" parent="JbDq3TnTa2djjw5Sv12C-0"/>
        <mxCell id="JbDq3TnTa2djjw5Sv12C-4" value="getYields(fieldList)" style="html=1;verticalAlign=bottom;startArrow=circle;startFill=1;endArrow=open;startSize=6;endSize=8;entryX=0;entryY=0;entryDx=0;entryDy=0;entryPerimeter=0;" parent="JbDq3TnTa2djjw5Sv12C-1" target="JbDq3TnTa2djjw5Sv12C-6" edge="1">
          <mxGeometry x="0.0811" width="80" relative="1" as="geometry">
            <mxPoint x="40" y="100" as="sourcePoint"/>
            <mxPoint x="230" y="98" as="targetPoint"/>
            <mxPoint as="offset"/>
          </mxGeometry>
        </mxCell>
        <mxCell id="JbDq3TnTa2djjw5Sv12C-5" value=":Farm" style="shape=umlLifeline;perimeter=lifelinePerimeter;whiteSpace=wrap;html=1;container=1;collapsible=0;recursiveResize=0;outlineConnect=0;" parent="JbDq3TnTa2djjw5Sv12C-1" vertex="1">
          <mxGeometry x="180" y="40" width="100" height="560" as="geometry"/>
        </mxCell>
        <mxCell id="JbDq3TnTa2djjw5Sv12C-6" value="" style="html=1;points=[];perimeter=orthogonalPerimeter;" parent="JbDq3TnTa2djjw5Sv12C-5" vertex="1">
          <mxGeometry x="45" y="60" width="10" height="480" as="geometry"/>
        </mxCell>
        <mxCell id="JbDq3TnTa2djjw5Sv12C-7" value="field = getField()" style="html=1;verticalAlign=bottom;endArrow=open;exitX=1;exitY=0.0425;exitDx=0;exitDy=0;exitPerimeter=0;endFill=0;endSize=8;entryX=0;entryY=0;entryDx=0;entryDy=0;entryPerimeter=0;" parent="JbDq3TnTa2djjw5Sv12C-1" source="JbDq3TnTa2djjw5Sv12C-6" target="nVF_uIq8WBIcy1vgPHKG-0" edge="1">
          <mxGeometry x="0.2691" width="80" relative="1" as="geometry">
            <mxPoint x="260" y="120" as="sourcePoint"/>
            <mxPoint x="300" y="100" as="targetPoint"/>
            <mxPoint as="offset"/>
          </mxGeometry>
        </mxCell>
        <mxCell id="JbDq3TnTa2djjw5Sv12C-15" value="yield : Yield" style="shape=umlLifeline;perimeter=lifelinePerimeter;whiteSpace=wrap;html=1;container=1;collapsible=0;recursiveResize=0;outlineConnect=0;" parent="JbDq3TnTa2djjw5Sv12C-1" vertex="1">
          <mxGeometry x="660" y="40" width="100" height="560" as="geometry"/>
        </mxCell>
        <mxCell id="nVF_uIq8WBIcy1vgPHKG-3" value="" style="html=1;points=[];perimeter=orthogonalPerimeter;" parent="JbDq3TnTa2djjw5Sv12C-15" vertex="1">
          <mxGeometry x="46" y="320" width="10" height="50" as="geometry"/>
        </mxCell>
        <mxCell id="JbDq3TnTa2djjw5Sv12C-16" value="crop : Crop" style="shape=umlLifeline;perimeter=lifelinePerimeter;whiteSpace=wrap;html=1;container=1;collapsible=0;recursiveResize=0;outlineConnect=0;" parent="JbDq3TnTa2djjw5Sv12C-1" vertex="1">
          <mxGeometry x="500" y="40" width="100" height="560" as="geometry"/>
        </mxCell>
        <mxCell id="nVF_uIq8WBIcy1vgPHKG-1" value="" style="html=1;points=[];perimeter=orthogonalPerimeter;" parent="JbDq3TnTa2djjw5Sv12C-16" vertex="1">
          <mxGeometry x="46" y="211" width="10" height="79" as="geometry"/>
        </mxCell>
        <mxCell id="JbDq3TnTa2djjw5Sv12C-22" value=": Field" style="shape=umlLifeline;perimeter=lifelinePerimeter;whiteSpace=wrap;html=1;container=1;collapsible=0;recursiveResize=0;outlineConnect=0;" parent="JbDq3TnTa2djjw5Sv12C-1" vertex="1">
          <mxGeometry x="340" y="40" width="100" height="560" as="geometry"/>
        </mxCell>
        <mxCell id="nVF_uIq8WBIcy1vgPHKG-0" value="" style="html=1;points=[];perimeter=orthogonalPerimeter;" parent="JbDq3TnTa2djjw5Sv12C-22" vertex="1">
          <mxGeometry x="45" y="80" width="10" height="40" as="geometry"/>
        </mxCell>
        <mxCell id="nVF_uIq8WBIcy1vgPHKG-2" value="crop = getCrop()" style="html=1;verticalAlign=bottom;endArrow=open;exitX=1;exitY=0.20875;exitDx=0;exitDy=0;exitPerimeter=0;endFill=0;endSize=8;entryX=0;entryY=0;entryDx=0;entryDy=0;entryPerimeter=0;" parent="JbDq3TnTa2djjw5Sv12C-1" target="nVF_uIq8WBIcy1vgPHKG-1" edge="1">
          <mxGeometry x="0.5781" width="80" relative="1" as="geometry">
            <mxPoint x="235" y="250.20000000000005" as="sourcePoint"/>
            <mxPoint x="460.5" y="230.5" as="targetPoint"/>
            <mxPoint as="offset"/>
          </mxGeometry>
        </mxCell>
        <mxCell id="nVF_uIq8WBIcy1vgPHKG-4" value="produced = calcYield(crop/livestock, ratio)" style="html=1;verticalAlign=bottom;endArrow=open;endFill=0;endSize=8;entryX=0;entryY=0;entryDx=0;entryDy=0;entryPerimeter=0;exitX=0.4;exitY=0.988;exitDx=0;exitDy=0;exitPerimeter=0;" parent="JbDq3TnTa2djjw5Sv12C-1" target="nVF_uIq8WBIcy1vgPHKG-3" edge="1">
          <mxGeometry x="0.1538" width="80" relative="1" as="geometry">
            <mxPoint x="550" y="360.03999999999996" as="sourcePoint"/>
            <mxPoint x="620.5" y="340" as="targetPoint"/>
            <mxPoint as="offset"/>
          </mxGeometry>
        </mxCell>
        <mxCell id="jS5YituAU8bFMCddn4Dk-0" value="ratio = getRatio()" style="text;html=1;align=center;verticalAlign=middle;resizable=0;points=[];;autosize=1;" parent="JbDq3TnTa2djjw5Sv12C-1" vertex="1">
          <mxGeometry x="430" y="250" width="110" height="20" as="geometry"/>
        </mxCell>
        <mxCell id="jS5YituAU8bFMCddn4Dk-3" value="while -&lt;br&gt;there is fields to get the yields of" style="shape=note;whiteSpace=wrap;html=1;size=14;verticalAlign=top;align=left;spacingTop=-6;" parent="JbDq3TnTa2djjw5Sv12C-1" vertex="1">
          <mxGeometry x="780" y="100" width="100" height="70" as="geometry"/>
        </mxCell>
        <mxCell id="jS5YituAU8bFMCddn4Dk-6" value="until -&lt;br&gt;until all yields per crops in field are calculated" style="shape=note;whiteSpace=wrap;html=1;size=14;verticalAlign=top;align=left;spacingTop=-6;" parent="JbDq3TnTa2djjw5Sv12C-1" vertex="1">
          <mxGeometry x="780" y="180" width="100" height="70" as="geometry"/>
        </mxCell>
        <mxCell id="jS5YituAU8bFMCddn4Dk-8" value="yields = listYields(field, produced)" style="html=1;verticalAlign=bottom;endArrow=open;exitX=-0.3;exitY=0.925;exitDx=0;exitDy=0;exitPerimeter=0;endFill=0;endSize=8;entryX=1;entryY=0.788;entryDx=0;entryDy=0;entryPerimeter=0;" parent="JbDq3TnTa2djjw5Sv12C-1" source="jS5YituAU8bFMCddn4Dk-7" target="JbDq3TnTa2djjw5Sv12C-6" edge="1">
          <mxGeometry x="-0.1539" y="22" width="80" relative="1" as="geometry">
            <mxPoint x="246" y="300.20000000000005" as="sourcePoint"/>
            <mxPoint x="390.5" y="477" as="targetPoint"/>
            <mxPoint as="offset"/>
          </mxGeometry>
        </mxCell>
        <mxCell id="jS5YituAU8bFMCddn4Dk-11" value="livestock = getLivestock()" style="html=1;verticalAlign=bottom;endArrow=open;exitX=1;exitY=0.20875;exitDx=0;exitDy=0;exitPerimeter=0;endFill=0;endSize=8;entryX=0;entryY=0;entryDx=0;entryDy=0;entryPerimeter=0;" parent="JbDq3TnTa2djjw5Sv12C-1" edge="1">
          <mxGeometry x="0.5781" width="80" relative="1" as="geometry">
            <mxPoint x="234.5" y="300.20000000000005" as="sourcePoint"/>
            <mxPoint x="545.5" y="301" as="targetPoint"/>
            <mxPoint as="offset"/>
          </mxGeometry>
        </mxCell>
        <mxCell id="jS5YituAU8bFMCddn4Dk-12" value="ratio = getRatio()" style="text;html=1;align=center;verticalAlign=middle;resizable=0;points=[];;autosize=1;" parent="JbDq3TnTa2djjw5Sv12C-1" vertex="1">
          <mxGeometry x="429.5" y="300" width="110" height="20" as="geometry"/>
        </mxCell>
        <mxCell id="jS5YituAU8bFMCddn4Dk-7" value="" style="html=1;points=[];perimeter=orthogonalPerimeter;" parent="JbDq3TnTa2djjw5Sv12C-1" vertex="1">
          <mxGeometry x="385" y="440" width="10" height="40" as="geometry"/>
        </mxCell>
        <mxCell id="jS5YituAU8bFMCddn4Dk-13" value="listYields - assigns yields with a list that states which field, the crops in that field, and the yield &lt;b&gt;produced&lt;/b&gt;&amp;nbsp;for each crop/livestock" style="shape=note;whiteSpace=wrap;html=1;size=14;verticalAlign=top;align=left;spacingTop=-6;" parent="JbDq3TnTa2djjw5Sv12C-1" vertex="1">
          <mxGeometry x="780" y="360" width="100" height="150" as="geometry"/>
        </mxCell>
        <mxCell id="jS5YituAU8bFMCddn4Dk-9" value="if crop" style="shape=umlFrame;whiteSpace=wrap;html=1;" parent="JbDq3TnTa2djjw5Sv12C-1" vertex="1">
          <mxGeometry x="170" y="215" width="400" height="65" as="geometry"/>
        </mxCell>
        <mxCell id="jS5YituAU8bFMCddn4Dk-10" value="else" style="shape=umlFrame;whiteSpace=wrap;html=1;" parent="JbDq3TnTa2djjw5Sv12C-1" vertex="1">
          <mxGeometry x="170" y="280" width="400" height="60" as="geometry"/>
        </mxCell>
        <mxCell id="jS5YituAU8bFMCddn4Dk-4" value="until" style="shape=umlFrame;whiteSpace=wrap;html=1;" parent="JbDq3TnTa2djjw5Sv12C-1" vertex="1">
          <mxGeometry x="160" y="180" width="580" height="260" as="geometry"/>
        </mxCell>
        <mxCell id="jS5YituAU8bFMCddn4Dk-1" value="while" style="shape=umlFrame;whiteSpace=wrap;html=1;" parent="JbDq3TnTa2djjw5Sv12C-1" vertex="1">
          <mxGeometry x="150" y="100" width="610" height="450" as="geometry"/>
        </mxCell>
      </root>
    </mxGraphModel>
  </diagram>
  <diagram id="Gv3KsZ4hAZQsgRfEitFv" name="FireballSeqDiag">
    <mxGraphModel dx="1182" dy="715" grid="1" gridSize="10" guides="1" tooltips="1" connect="1" arrows="1" fold="1" page="1" pageScale="1" pageWidth="850" pageHeight="1100" math="0" shadow="0">
      <root>
        <mxCell id="5KlEp6vb92K5L_eGDqCo-0"/>
        <mxCell id="5KlEp6vb92K5L_eGDqCo-1" parent="5KlEp6vb92K5L_eGDqCo-0"/>
        <mxCell id="m-edbBZZk_XOV4-LsFWJ-0" value=":Controller" style="shape=umlLifeline;perimeter=lifelinePerimeter;whiteSpace=wrap;html=1;container=1;collapsible=0;recursiveResize=0;outlineConnect=0;" vertex="1" parent="5KlEp6vb92K5L_eGDqCo-1">
          <mxGeometry x="140" y="40" width="100" height="600" as="geometry"/>
        </mxCell>
        <mxCell id="m-edbBZZk_XOV4-LsFWJ-1" value="new()" style="html=1;verticalAlign=bottom;startArrow=circle;startFill=1;endArrow=open;startSize=6;endSize=8;entryX=0;entryY=0.033;entryDx=0;entryDy=0;entryPerimeter=0;" edge="1" parent="5KlEp6vb92K5L_eGDqCo-1" target="m-edbBZZk_XOV4-LsFWJ-0">
          <mxGeometry width="80" relative="1" as="geometry">
            <mxPoint x="30" y="60" as="sourcePoint"/>
            <mxPoint x="120" y="60" as="targetPoint"/>
          </mxGeometry>
        </mxCell>
        <mxCell id="m-edbBZZk_XOV4-LsFWJ-2" value="init()" style="html=1;verticalAlign=bottom;startArrow=circle;startFill=1;endArrow=open;startSize=6;endSize=8;entryX=0;entryY=0;entryDx=0;entryDy=0;entryPerimeter=0;" edge="1" parent="5KlEp6vb92K5L_eGDqCo-1" target="m-edbBZZk_XOV4-LsFWJ-4">
          <mxGeometry width="80" relative="1" as="geometry">
            <mxPoint x="280" y="100.5" as="sourcePoint"/>
            <mxPoint x="400" y="98" as="targetPoint"/>
          </mxGeometry>
        </mxCell>
        <mxCell id="m-edbBZZk_XOV4-LsFWJ-3" value=":Controller" style="shape=umlLifeline;perimeter=lifelinePerimeter;whiteSpace=wrap;html=1;container=1;collapsible=0;recursiveResize=0;outlineConnect=0;" vertex="1" parent="5KlEp6vb92K5L_eGDqCo-1">
          <mxGeometry x="350" y="40" width="100" height="600" as="geometry"/>
        </mxCell>
        <mxCell id="m-edbBZZk_XOV4-LsFWJ-4" value="" style="html=1;points=[];perimeter=orthogonalPerimeter;" vertex="1" parent="m-edbBZZk_XOV4-LsFWJ-3">
          <mxGeometry x="45" y="60" width="10" height="480" as="geometry"/>
        </mxCell>
        <mxCell id="m-edbBZZk_XOV4-LsFWJ-5" value="new(1)" style="html=1;verticalAlign=bottom;endArrow=open;exitX=0.95;exitY=0.041;exitDx=0;exitDy=0;exitPerimeter=0;endFill=0;endSize=8;entryX=0;entryY=0.036;entryDx=0;entryDy=0;entryPerimeter=0;" edge="1" parent="5KlEp6vb92K5L_eGDqCo-1" source="m-edbBZZk_XOV4-LsFWJ-4" target="m-edbBZZk_XOV4-LsFWJ-13">
          <mxGeometry width="80" relative="1" as="geometry">
            <mxPoint x="430" y="120" as="sourcePoint"/>
            <mxPoint x="470" y="100" as="targetPoint"/>
          </mxGeometry>
        </mxCell>
        <mxCell id="m-edbBZZk_XOV4-LsFWJ-6" value="getVector()" style="html=1;verticalAlign=bottom;endArrow=open;exitX=1;exitY=0.165;exitDx=0;exitDy=0;exitPerimeter=0;endFill=0;endSize=8;" edge="1" parent="5KlEp6vb92K5L_eGDqCo-1" source="m-edbBZZk_XOV4-LsFWJ-4" target="m-edbBZZk_XOV4-LsFWJ-13">
          <mxGeometry x="0.5556" width="80" relative="1" as="geometry">
            <mxPoint x="420" y="180.17999999999995" as="sourcePoint"/>
            <mxPoint x="515.5" y="180.5" as="targetPoint"/>
            <mxPoint as="offset"/>
          </mxGeometry>
        </mxCell>
        <mxCell id="m-edbBZZk_XOV4-LsFWJ-7" value="vector = apply()" style="html=1;verticalAlign=bottom;endArrow=open;endFill=0;endSize=8;exitX=1;exitY=0.291;exitDx=0;exitDy=0;exitPerimeter=0;" edge="1" parent="5KlEp6vb92K5L_eGDqCo-1" source="m-edbBZZk_XOV4-LsFWJ-4" target="m-edbBZZk_XOV4-LsFWJ-14">
          <mxGeometry x="0.5665" width="80" relative="1" as="geometry">
            <mxPoint x="430" y="240" as="sourcePoint"/>
            <mxPoint x="750" y="240" as="targetPoint"/>
            <mxPoint as="offset"/>
          </mxGeometry>
        </mxCell>
        <mxCell id="m-edbBZZk_XOV4-LsFWJ-8" value="boolCollided()" style="html=1;verticalAlign=bottom;endArrow=open;endFill=0;endSize=8;entryX=0;entryY=0;entryDx=0;entryDy=0;entryPerimeter=0;exitX=1;exitY=0.375;exitDx=0;exitDy=0;exitPerimeter=0;" edge="1" parent="5KlEp6vb92K5L_eGDqCo-1" source="m-edbBZZk_XOV4-LsFWJ-4" target="m-edbBZZk_XOV4-LsFWJ-16">
          <mxGeometry x="0.8082" width="80" relative="1" as="geometry">
            <mxPoint x="420" y="280" as="sourcePoint"/>
            <mxPoint x="785" y="270.65999999999997" as="targetPoint"/>
            <mxPoint as="offset"/>
          </mxGeometry>
        </mxCell>
        <mxCell id="m-edbBZZk_XOV4-LsFWJ-9" value="" style="html=1;verticalAlign=bottom;endArrow=open;endFill=0;endSize=8;entryX=0;entryY=0;entryDx=0;entryDy=0;entryPerimeter=0;exitX=1;exitY=0.479;exitDx=0;exitDy=0;exitPerimeter=0;" edge="1" parent="5KlEp6vb92K5L_eGDqCo-1" source="m-edbBZZk_XOV4-LsFWJ-4" target="m-edbBZZk_XOV4-LsFWJ-17">
          <mxGeometry x="0.8082" width="80" relative="1" as="geometry">
            <mxPoint x="420" y="330" as="sourcePoint"/>
            <mxPoint x="785" y="320.65999999999997" as="targetPoint"/>
            <mxPoint as="offset"/>
          </mxGeometry>
        </mxCell>
        <mxCell id="m-edbBZZk_XOV4-LsFWJ-13" value="fireball : Fireball" style="shape=umlLifeline;perimeter=lifelinePerimeter;whiteSpace=wrap;html=1;container=1;collapsible=0;recursiveResize=0;outlineConnect=0;" vertex="1" parent="5KlEp6vb92K5L_eGDqCo-1">
          <mxGeometry x="490" y="100" width="100" height="540" as="geometry"/>
        </mxCell>
        <mxCell id="m-edbBZZk_XOV4-LsFWJ-14" value=": Gravity" style="shape=umlLifeline;perimeter=lifelinePerimeter;whiteSpace=wrap;html=1;container=1;collapsible=0;recursiveResize=0;outlineConnect=0;" vertex="1" parent="5KlEp6vb92K5L_eGDqCo-1">
          <mxGeometry x="630" y="160" width="100" height="480" as="geometry"/>
        </mxCell>
        <mxCell id="m-edbBZZk_XOV4-LsFWJ-24" value="" style="html=1;points=[];perimeter=orthogonalPerimeter;" vertex="1" parent="m-edbBZZk_XOV4-LsFWJ-14">
          <mxGeometry x="45" y="80" width="10" height="20" as="geometry"/>
        </mxCell>
        <mxCell id="m-edbBZZk_XOV4-LsFWJ-15" value=": Collision" style="shape=umlLifeline;perimeter=lifelinePerimeter;whiteSpace=wrap;html=1;container=1;collapsible=0;recursiveResize=0;outlineConnect=0;" vertex="1" parent="5KlEp6vb92K5L_eGDqCo-1">
          <mxGeometry x="770" y="220" width="100" height="420" as="geometry"/>
        </mxCell>
        <mxCell id="m-edbBZZk_XOV4-LsFWJ-16" value="" style="html=1;points=[];perimeter=orthogonalPerimeter;" vertex="1" parent="m-edbBZZk_XOV4-LsFWJ-15">
          <mxGeometry x="45" y="60" width="10" height="40" as="geometry"/>
        </mxCell>
        <mxCell id="m-edbBZZk_XOV4-LsFWJ-17" value="" style="html=1;points=[];perimeter=orthogonalPerimeter;" vertex="1" parent="m-edbBZZk_XOV4-LsFWJ-15">
          <mxGeometry x="45" y="110" width="10" height="40" as="geometry"/>
        </mxCell>
        <mxCell id="m-edbBZZk_XOV4-LsFWJ-21" value="getPos()" style="text;html=1;align=center;verticalAlign=middle;resizable=0;points=[];;autosize=1;" vertex="1" parent="5KlEp6vb92K5L_eGDqCo-1">
          <mxGeometry x="480" y="180" width="60" height="20" as="geometry"/>
        </mxCell>
        <mxCell id="m-edbBZZk_XOV4-LsFWJ-23" value="" style="html=1;points=[];perimeter=orthogonalPerimeter;" vertex="1" parent="5KlEp6vb92K5L_eGDqCo-1">
          <mxGeometry x="535" y="180" width="10" height="60" as="geometry"/>
        </mxCell>
        <mxCell id="m-edbBZZk_XOV4-LsFWJ-25" value="while" style="shape=umlFrame;whiteSpace=wrap;html=1;" vertex="1" parent="5KlEp6vb92K5L_eGDqCo-1">
          <mxGeometry x="260" y="90" width="670" height="330" as="geometry"/>
        </mxCell>
        <mxCell id="m-edbBZZk_XOV4-LsFWJ-26" value="if" style="shape=umlFrame;whiteSpace=wrap;html=1;" vertex="1" parent="5KlEp6vb92K5L_eGDqCo-1">
          <mxGeometry x="320" y="265" width="580" height="115" as="geometry"/>
        </mxCell>
        <mxCell id="m-edbBZZk_XOV4-LsFWJ-27" value="else" style="text;html=1;align=center;verticalAlign=middle;resizable=0;points=[];;autosize=1;" vertex="1" parent="5KlEp6vb92K5L_eGDqCo-1">
          <mxGeometry x="330" y="322.5" width="40" height="20" as="geometry"/>
        </mxCell>
      </root>
    </mxGraphModel>
  </diagram>
</mxfile>
